<?xml version="1.0" standalone="no"?>
<!DOCTYPE svg PUBLIC "-//W3C//DTD SVG 20010904//EN"
 "http://www.w3.org/TR/2001/REC-SVG-20010904/DTD/svg10.dtd">
<svg version="1.0" xmlns="http://www.w3.org/2000/svg"
 width="1472.000000pt" height="854.000000pt" viewBox="0 0 1472.000000 854.000000"
 preserveAspectRatio="xMidYMid meet">

<g transform="translate(0.000000,854.000000) scale(0.100000,-0.100000)"
fill="#000000" stroke="none">
<path d="M5115 7183 c-282 -39 -515 -249 -571 -515 -23 -107 -14 -269 19 -373
54 -165 165 -308 314 -406 95 -62 248 -139 462 -233 409 -181 552 -281 628
-441 33 -71 37 -87 41 -184 4 -94 2 -114 -20 -177 -65 -188 -215 -319 -411
-361 -102 -21 -297 -13 -392 17 -270 85 -461 330 -554 712 l-26 108 -47 0 -48
0 0 -435 0 -435 49 0 49 0 7 43 c8 47 50 159 73 195 l15 23 56 -54 c153 -148
309 -231 501 -268 88 -17 309 -17 395 0 268 53 486 217 578 436 125 298 66
652 -145 866 -98 99 -215 166 -614 349 -505 231 -657 362 -680 589 -18 169 95
366 243 421 166 62 344 51 513 -31 71 -35 101 -58 180 -138 79 -79 105 -113
145 -191 27 -52 61 -133 76 -180 l27 -85 41 -3 41 -3 0 356 0 356 -42 -3 c-40
-3 -43 -5 -48 -38 -7 -43 -50 -136 -77 -170 l-21 -24 -70 66 c-125 118 -237
175 -397 203 -81 14 -219 18 -290 8z"/>
<path d="M9355 7183 c-193 -25 -334 -66 -475 -139 -274 -142 -521 -442 -639
-778 -147 -416 -107 -915 100 -1253 78 -128 218 -280 345 -376 140 -106 361
-199 546 -231 290 -50 519 -25 891 99 228 76 311 95 418 95 l79 0 1 208 c0
259 12 474 30 531 17 57 73 115 124 131 22 6 82 14 133 17 l92 6 0 48 0 49
-585 0 -585 0 0 -50 0 -50 95 0 c134 0 192 -14 236 -59 51 -51 61 -92 66 -283
6 -191 -7 -275 -58 -377 -55 -110 -201 -213 -375 -263 -68 -20 -101 -23 -239
-23 -175 0 -249 15 -379 74 -128 58 -280 184 -354 292 -162 239 -232 609 -210
1112 12 286 70 527 164 695 104 183 329 352 542 407 191 49 428 33 607 -42
142 -59 317 -207 402 -340 79 -124 150 -311 168 -440 l7 -53 49 0 49 0 0 450
0 450 -48 0 -49 0 -13 -72 c-12 -72 -55 -205 -70 -221 -4 -5 -20 7 -34 26 -33
43 -149 139 -237 195 -122 79 -283 135 -456 161 -68 10 -272 13 -338 4z"/>
<path d="M1900 7095 l0 -45 63 0 c159 -1 232 -44 264 -159 17 -62 18 -129 18
-1106 0 -1004 -1 -1042 -19 -1099 -24 -73 -74 -126 -136 -145 -25 -7 -91 -16
-147 -19 l-103 -5 0 -43 0 -44 1123 0 1123 0 22 343 c13 188 26 377 29 420 l6
77 -47 0 c-29 0 -48 -5 -50 -12 -91 -310 -149 -424 -291 -564 -135 -134 -231
-163 -561 -171 -247 -6 -367 5 -436 41 -104 53 -109 89 -115 740 l-5 519 244
-6 c142 -3 260 -10 283 -17 115 -34 165 -134 165 -332 l0 -78 45 0 45 0 0 465
0 465 -44 0 -43 0 -5 -120 c-7 -155 -27 -201 -109 -243 -71 -36 -158 -46 -391
-47 l-188 0 0 570 0 570 288 0 c406 0 509 -15 619 -87 111 -73 197 -227 243
-435 l13 -58 49 0 c45 0 48 2 44 23 -3 12 -17 153 -31 312 -14 160 -28 300
-31 313 l-4 22 -965 0 -965 0 0 -45z"/>
<path d="M6600 7096 l0 -43 129 -5 c110 -4 135 -8 177 -29 67 -33 92 -81 104
-196 12 -114 12 -1941 1 -2054 -11 -97 -34 -153 -81 -192 -42 -36 -87 -47
-217 -54 l-113 -6 0 -43 0 -44 615 0 615 0 0 44 0 43 -112 6 c-186 10 -249 46
-285 165 -17 53 -18 129 -18 1092 0 1104 0 1115 48 1188 38 56 90 74 238 80
l129 5 0 43 0 44 -615 0 -615 0 0 -44z"/>
<path d="M12305 4029 c-426 -44 -757 -269 -978 -666 -137 -246 -194 -496 -184
-803 13 -365 120 -628 354 -871 229 -237 491 -359 831 -388 242 -21 434 10
768 123 183 62 313 90 396 84 l58 -4 0 200 c1 232 14 474 30 529 6 21 28 55
49 76 43 43 91 59 212 68 l79 6 0 43 0 44 -570 0 -570 0 0 -45 0 -45 77 0
c130 0 199 -17 243 -59 21 -20 43 -54 50 -76 21 -67 24 -347 6 -435 -41 -192
-153 -305 -381 -382 -78 -27 -108 -32 -226 -36 -254 -9 -438 55 -628 217 -238
203 -355 602 -337 1156 11 368 73 624 193 801 46 66 155 174 223 221 69 46
178 99 255 122 182 55 419 44 594 -26 284 -114 493 -374 563 -702 11 -53 22
-102 24 -108 2 -8 21 -13 49 -13 l45 0 0 441 0 440 -47 -3 -47 -3 -13 -70 c-7
-38 -24 -103 -39 -142 l-26 -73 -72 66 c-272 253 -588 354 -981 313z"/>
<path d="M4935 4009 c-159 -4 -350 -10 -422 -14 l-133 -7 0 -43 0 -42 128 -5
c184 -7 223 -30 260 -147 16 -52 17 -137 17 -1071 0 -1080 0 -1087 -48 -1158
-12 -18 -45 -44 -75 -59 -45 -22 -70 -26 -167 -31 l-115 -5 0 -43 0 -44 605 0
605 0 0 44 0 43 -117 6 c-143 7 -183 18 -228 62 -66 66 -68 84 -73 618 l-4
477 234 0 c514 0 703 46 868 210 129 127 188 269 197 470 9 197 -41 348 -154
470 -125 135 -292 213 -533 250 -82 12 -399 30 -495 28 -33 -1 -190 -5 -350
-9z m720 -118 c167 -45 269 -121 330 -244 47 -98 65 -172 72 -307 10 -209 -38
-366 -152 -488 -70 -76 -116 -104 -215 -131 -78 -22 -279 -41 -432 -41 l-88 0
0 621 0 621 203 -5 c164 -3 217 -8 282 -26z"/>
<path d="M6620 3945 l0 -45 94 0 c238 0 288 -41 307 -252 15 -167 6 -1988 -10
-2048 -18 -68 -50 -108 -109 -137 -45 -22 -70 -26 -167 -31 l-115 -5 0 -43 0
-44 600 0 600 0 0 44 0 43 -112 6 c-62 3 -130 11 -151 17 -55 16 -103 70 -124
138 -17 53 -18 128 -18 1082 0 944 1 1029 17 1081 37 117 76 140 261 147 l127
5 0 43 0 44 -600 0 -600 0 0 -45z"/>
<path d="M8020 3945 l0 -45 85 0 c124 0 183 -15 227 -59 50 -50 67 -115 78
-302 12 -198 12 -1646 0 -1803 -10 -138 -23 -164 -109 -220 -62 -42 -125 -62
-233 -78 l-78 -11 0 -44 0 -43 495 0 495 0 0 44 0 43 -88 6 c-149 11 -277 65
-332 141 -46 63 -45 27 -47 1141 -3 1001 -2 1049 15 1028 9 -12 431 -571 937
-1242 l920 -1220 42 -1 43 0 2 1193 3 1192 27 56 c45 91 142 146 304 172 l74
12 0 42 0 43 -481 0 -480 0 3 -42 3 -43 83 -7 c199 -16 316 -83 350 -200 14
-46 16 -170 20 -916 2 -489 0 -862 -5 -859 -5 3 -360 469 -789 1036 l-779
1031 -392 0 -393 0 0 -45z"/>
</g>
</svg>
